<?xml version="1.0" standalone="no"?>
<svg xmlns="http://www.w3.org/2000/svg" viewBox="0 0 512 512" style="width: 911.75px; height: 911.75px;"><path d="M0,0L512,0L512,512L0,512Z"/><path fill="#fff" stroke-linejoin="round" d="M 427.18 91.80500030517578 C 416.31 91.93500030517578 404.55 95.78500030517579 392.75 107.48500030517579 C 402.05 112.78500030517579 418.56 116.80500030517578 432.84000000000003 116.70500030517579 C 440.45000000000005 116.64500030517578 447.44000000000005 115.47500030517578 452.29 113.52500030517578 C 457.14000000000004 111.56500030517579 459.39000000000004 109.29500030517578 460.28000000000003 106.83500030517578 A 9 9 0 0 1 460.28000000000003 106.83500030517578 C 460.53000000000003 106.15500030517578 460.77000000000004 105.44500030517578 461.17 104.67500030517579 C 460.12 104.01500030517579 459.07 103.28500030517579 458.01 102.39500030517578 L 458.01 102.39500030517578 C 451.94 97.34500030517579 441.15999999999997 92.22500030517578 429.4 91.83500030517578 C 428.65999999999997 91.81500030517579 427.92999999999995 91.80500030517578 427.17999999999995 91.81500030517579 Z"/><path d="M 176.07 103.69500030517578 C 175.29999999999998 103.67500030517579 174.54999999999998 103.69500030517578 173.84 103.73500030517579 C 167.9 104.06500030517579 159.91 106.64500030517578 153.34 110.9950003051758 C 146.77 115.34500030517579 141.72 121.2450003051758 139.76 127.7450003051758 A 9 9 0 0 1 126.82999999999998 133.05500030517578 C 100.24999999999999 118.56500030517579 76.32999999999998 126.16500030517578 59.079999999999984 141.81500030517577 C 23.149999999999984 174.41500030517577 13.949999999999982 229.07500030517576 26.619999999999983 287.45500030517576 L 26.619999999999983 287.45500030517576 C 33.929999999999986 321.1250003051758 45.609999999999985 340.45500030517576 67.89999999999998 350.34500030517574 A 9 9 0 0 1 68.04999999999998 350.40500030517575 C 70.26999999999998 351.38500030517577 72.25999999999998 352.29500030517573 74.13999999999999 353.16500030517574 L 78.74999999999999 331.1850003051757 A 9 9 0 1 1 96.36999999999999 334.8850003051757 L 72.88 446.8840026855469 C 74.35 449.6740026855469 75.61999999999999 450.1140026855469 78.47 450.3140026855469 C 81.55 450.5340026855469 87.21 449.08400268554686 94.18 445.7240026855469 L 132.3 339.2140026855469 A 9 9 0 0 1 135.69 334.81400268554694 C 145.26 328.2740026855469 154.4 319.1540026855469 161 310.04400268554696 C 167.59 300.93400268554694 171.36 291.63400268554693 171.63 286.48400268554695 A 9 9 0 0 1 180.96 277.834002685547 A 9 9 0 0 1 189.60000000000002 287.42400268554695 C 189.01000000000002 298.63400268554693 183.42000000000002 309.75400268554694 175.57000000000002 320.59400268554697 C 168.31000000000003 330.634002685547 158.84000000000003 340.15400268554697 148.33 347.78400268554697 L 145.13000000000002 356.72400268554696 C 151.99000000000004 365.41400268554696 158.47000000000003 370.50400268554694 164.70000000000002 373.464002685547 C 173.44000000000003 377.624002685547 182.36 378.04400268554696 193.22000000000003 376.80400268554695 C 209.63000000000002 374.93400268554694 227.81000000000003 363.93400268554694 236.73000000000002 339.54400268554696 A 9 9 0 0 1 253.46 339.10400268554696 C 258.59000000000003 351.12400268554694 264.12 356.99400268554695 269.93 360.42400268554695 C 275.74 363.85400268554696 282.49 365.0140026855469 290.74 365.334002685547 A 9 9 0 0 1 290.75 365.334002685547 C 297.59 365.59400268554697 303.23 365.454002685547 307.35 363.684002685547 C 307.77000000000004 363.504002685547 308.18 363.304002685547 308.59000000000003 363.094002685547 L 304.72 339.77400268554703 A 9 9 0 1 1 322.48 336.82400268554704 L 340.07 442.67400268554707 C 345.57 446.4140026855471 348.68 446.63400268554705 351.12 445.8940026855471 C 353.5 445.1840026855471 356.64 442.5740026855471 359.98 438.2640026855471 L 346.23 323.8740026855471 A 9 9 0 0 1 354.84000000000003 313.6740026855471 A 9 9 0 0 1 364.1 321.72400268554713 L 368.39000000000004 357.4240026855471 C 373.54 356.2340026855471 377.52000000000004 354.8740026855471 380.79 352.4240026855471 C 385.06 349.22400268554713 389.25 343.6740026855471 392.89000000000004 330.91400268554713 A 9 9 0 0 1 406.96000000000004 326.1940026855471 C 412.86 330.6340026855471 418.11 330.5640026855471 424.64000000000004 328.0340026855471 C 431.16 325.5140026855471 438.06000000000006 319.80400268554706 442.63000000000005 313.9540026855471 C 455.50000000000006 297.4540026855471 457.27000000000004 271.5740026855471 455.77000000000004 244.7540026855471 C 453.70000000000005 245.0940026855471 451.61 245.30400268554712 449.53000000000003 245.4240026855471 C 440.66 245.9240026855471 431.57000000000005 244.5240026855471 423.81000000000006 240.9640026855471 A 9 9 0 0 1 423.81000000000006 240.9640026855471 C 410.49000000000007 234.8340026855471 402.15000000000003 223.4240026855471 395.62000000000006 212.06400268554708 C 391.70000000000005 205.25400268554708 388.33000000000004 198.38400268554707 385.06000000000006 192.07400268554707 C 384.69000000000005 192.79400268554707 384.4700000000001 193.13400268554707 384.09000000000003 193.87400268554708 C 381.91 198.1740026855471 379.62 202.7440026855471 377.32000000000005 206.63400268554707 C 376.1700000000001 208.58400268554706 375.05000000000007 210.34400268554708 373.65000000000003 212.04400268554707 C 372.25000000000006 213.74400268554706 371.13000000000005 216.16400268554708 365.85 217.05400268554706 C 353.36 219.14400268554706 341.97 213.33400268554706 336.09000000000003 204.42400268554707 C 330.21000000000004 195.51400268554707 328.70000000000005 184.18400268554706 331.29 173.23400268554707 C 334.04 161.61400268554706 341.08000000000004 135.00400268554708 353.93 117.21400268554706 C 356.08 114.23400268554705 358.38 111.84400268554705 360.72 109.77400268554706 C 360.43 109.63400268554706 360.13000000000005 109.49400268554706 359.83000000000004 109.36400268554706 C 353.68000000000006 106.65400268554707 346.04 105.98400268554707 337.81000000000006 105.95400268554707 C 332.01000000000005 105.93400268554707 324.31000000000006 107.77400268554706 318.08000000000004 111.00400268554706 C 311.85 114.23400268554707 307.37000000000006 118.72400268554706 305.86 122.80400268554706 A 9 9 0 0 1 288.6 121.44400268554706 C 287.83000000000004 117.62400268554707 284.28000000000003 113.87400268554705 277.95000000000005 110.87400268554705 C 271.62000000000006 107.87400268554705 263.19000000000005 106.20400268554705 256.80000000000007 106.13400268554706 C 251.16000000000008 106.07400268554706 243.28000000000006 108.37400268554705 236.61000000000007 111.98400268554705 C 229.94000000000008 115.59400268554705 224.52000000000007 120.75400268554705 223.01000000000008 123.50400268554705 A 9 9 0 0 1 206.5300000000001 121.80400268554705 C 204.7700000000001 116.08400268554705 200.1400000000001 111.44400268554705 193.7800000000001 108.17400268554705 C 188.2100000000001 105.31400268554705 181.48000000000008 103.79400268554706 176.07000000000008 103.67400268554705 Z"/><path d="M 483.84 120.50500030517577 C 484.16999999999996 122.31500030517577 484.48999999999995 124.19500030517577 484.79999999999995 126.19500030517577 C 487.09999999999997 140.67500030517576 488.84999999999997 158.76500030517576 489.18999999999994 169.70500030517576 A 9 9 0 0 1 489.0299999999999 171.77500030517575 C 489.3999999999999 175.13500030517577 490.4799999999999 178.80500030517575 491.8299999999999 180.95500030517576 C 493.2099999999999 183.14500030517576 493.79999999999995 183.55500030517575 495.2799999999999 183.50500030517577 C 496.2899999999999 183.15500030517578 496.8599999999999 182.57500030517576 497.6499999999999 179.08500030517578 C 498.56999999999994 175.00500030517577 498.50999999999993 168.14500030517578 497.2799999999999 160.5450003051758 C 495.0799999999999 147.02500030517578 489.3599999999999 130.9850003051758 483.8399999999999 120.5050003051758 Z"/><path d="M 372.09 123.73500030517577 C 370.82 124.89500030517577 369.71 126.14500030517577 368.53 127.77500030517578 A 9 9 0 0 0 368.53 127.77500030517578 C 359.16999999999996 140.7350003051758 351.27 166.99500030517578 348.80999999999995 177.39500030517578 A 9 9 0 0 0 348.80999999999995 177.39500030517578 C 347.2699999999999 183.90500030517578 348.50999999999993 190.5750003051758 351.11999999999995 194.52500030517578 C 353.35999999999996 197.91500030517577 355.8999999999999 199.66500030517577 360.5199999999999 199.4550003051758 C 360.92999999999995 198.86500030517578 361.25999999999993 198.43500030517578 361.81999999999994 197.4850003051758 C 363.60999999999996 194.4550003051758 365.8399999999999 190.0650003051758 368.0299999999999 185.74500030517578 C 370.2199999999999 181.41500030517577 372.3399999999999 177.21500030517578 374.49999999999994 173.77500030517578 C 375.03999999999996 172.9250003051758 375.50999999999993 172.1350003051758 376.11999999999995 171.3250003051758 C 374.86999999999995 163.3550003051758 373.34 151.42500030517581 372.5199999999999 139.9050003051758 C 372.1099999999999 134.1250003051758 371.86999999999995 128.6450003051758 372.06999999999994 123.7250003051758 Z"/><path d="M 466.49 126.10500030517578 C 464.14 127.71500030517578 461.66 129.15500030517578 459.04 130.21500030517578 C 451.17 133.39500030517578 442.23 134.64500030517578 432.98 134.7050003051758 C 418.21000000000004 134.8150003051758 402.76 131.99500030517578 390.14 126.29500030517579 C 390.09 129.86500030517578 390.15999999999997 133.9850003051758 390.49 138.64500030517578 C 391.38 151.17500030517581 393.47 165.84500030517577 394.53000000000003 172.15500030517578 C 400.91 182.27500030517578 405.73 193.5450003051758 411.23 203.11500030517578 C 417.01 213.17500030517581 423.24 220.90500030517578 431.34000000000003 224.6350003051758 L 431.34000000000003 224.6350003051758 C 435.52000000000004 226.55500030517578 442.51000000000005 227.8150003051758 448.52000000000004 227.4750003051758 C 454.53000000000003 227.1350003051758 459.08000000000004 224.9050003051758 459.96000000000004 223.8450003051758 A 9 9 0 0 1 460.05 223.7350003051758 C 461.12 222.49500030517578 465.2 212.4150003051758 467.3 201.49500030517578 C 469.40000000000003 190.5750003051758 470.65000000000003 178.25500030517577 470.88 169.9150003051758 A 9 9 0 0 1 471.09 168.2450003051758 C 470.89 163.6550003051758 470.41999999999996 157.6050003051758 469.78999999999996 151.1950003051758 A 9 9 0 0 1 452.28 148.2750003051758 A 9 9 0 0 1 461.53999999999996 139.2750003051758 A 9 9 0 0 1 468.98999999999995 143.63500030517582 C 468.40999999999997 138.5850003051758 467.73999999999995 133.5550003051758 467.0199999999999 129.0250003051758 C 466.8499999999999 127.94500030517581 466.6599999999999 127.13500030517581 466.4799999999999 126.11500030517581 Z"/><path d="M 408.2 142.64500030517578 A 9 9 0 0 1 416.95 151.64500030517578 A 9 9 0 0 1 398.95 151.64500030517578 A 9 9 0 0 1 408.21 142.64500030517578 Z"/><path d="M 455.75 190.86500030517578 C 459.43 190.84500030517577 462.18 192.8250003051758 462.2 197.11500030517578 C 462.24 204.8850003051758 456.42 212.09500030517577 449.47999999999996 216.06500030517577 L 448.53 192.99500030517578 C 451.01 191.61500030517578 453.54999999999995 190.87500030517577 455.75 190.86500030517578 Z"/><path d="M 431.58 192.87500030517577 C 433.45 192.83500030517578 435.49 193.29500030517576 437.43 194.2050003051758 L 441.19 216.71500030517578 C 435.19 213.0450003051758 425.76 213.06500030517577 424.65999999999997 200.59500030517577 C 424.2 195.40500030517578 427.46999999999997 192.9550003051758 431.58 192.87500030517577 Z"/><path d="M 400.74 357.1550003051758 C 398.01 361.12500030517583 394.96000000000004 364.3350003051758 391.59000000000003 366.8550003051758 C 390.44000000000005 367.7150003051758 389.28000000000003 368.4750003051758 388.1 369.1750003051758 L 404.68 431.19500030517577 C 409.6 431.9950003051758 414.02 432.3550003051758 416.84000000000003 431.6750003051758 C 419.97 430.9250003051758 421.96000000000004 429.8150003051758 423.90000000000003 426.0650003051758 L 400.74 357.14500030517576 Z"/><path d="M 159.46 390.8350003051758 L 160.97 437.6050003051758 C 163.82 440.1550003051758 166.27 441.8750003051758 167.82 442.4850003051758 C 169.82 443.2750003051758 170.54999999999998 443.1550003051758 171.69 442.7850003051758 C 173.57999999999998 442.1750003051758 176.99 438.8950003051758 180.74 434.6350003051758 L 176.96 395.0850003051758 C 171.12 394.5450003051758 165.26000000000002 393.2550003051758 159.45000000000002 390.8350003051758 Z"/></svg>